<?xml version="1.0" standalone="no"?><!DOCTYPE svg PUBLIC "-//W3C//DTD SVG 1.1//EN" "http://www.w3.org/Graphics/SVG/1.1/DTD/svg11.dtd"><svg t="1633714702782" class="icon" viewBox="0 0 1024 1024" version="1.1" xmlns="http://www.w3.org/2000/svg" p-id="2739" xmlns:xlink="http://www.w3.org/1999/xlink" width="200" height="200"><defs><style type="text/css"></style></defs><path d="M729.301333 42.666667c79.552 0 142.72 69.504 145.28 154.666666L874.666667 202.666667V576h32a74.666667 74.666667 0 0 1 74.56 70.570667L981.333333 650.666667v256a74.666667 74.666667 0 0 1-74.666666 74.666666h-789.333334A74.666667 74.666667 0 0 1 42.666667 906.666667v-256A74.666667 74.666667 0 0 1 117.333333 576H149.333333V202.666667c0-85.76 61.568-157.034667 140.416-159.914667L294.698667 42.666667h434.602666zM216.832 640H117.333333a10.666667 10.666667 0 0 0-10.666666 10.666667v256a10.666667 10.666667 0 0 0 10.666666 10.666666h789.333334a10.666667 10.666667 0 0 0 10.666666-10.666666v-256a10.666667 10.666667 0 0 0-10.666666-10.666667h-78.421334a10.666667 10.666667 0 0 0-6.912 2.538667l-126.890666 107.733333a74.666667 74.666667 0 0 1-48.32 17.728H381.226667a74.666667 74.666667 0 0 1-52.522667-21.589333l-104.405333-103.317334a10.666667 10.666667 0 0 0-7.488-3.093333zM729.301333 106.666667H294.698667c-42.666667 0-79.104 39.658667-81.28 91.136L213.333333 202.666667V576h3.498667a74.666667 74.666667 0 0 1 49.194667 18.517333l3.328 3.072 104.384 103.317334a10.666667 10.666667 0 0 0 7.509333 3.093333h264.874667a10.666667 10.666667 0 0 0 6.890666-2.538667l126.912-107.733333a74.666667 74.666667 0 0 1 30.72-15.637333L810.666667 202.666667c0-52.202667-35.114667-93.44-77.397334-95.893334L729.301333 106.666667zM629.333333 448a32 32 0 0 1 0 64h-234.666666a32 32 0 0 1 0-64h234.666666z m64-192a32 32 0 0 1 0 64h-362.666666a32 32 0 0 1 0-64h362.666666z" fill="#131415" p-id="2740"></path></svg>