<?xml version="1.0" standalone="no"?><!DOCTYPE svg PUBLIC "-//W3C//DTD SVG 1.1//EN" "http://www.w3.org/Graphics/SVG/1.1/DTD/svg11.dtd"><svg t="1633714719754" class="icon" viewBox="0 0 1024 1024" version="1.1" xmlns="http://www.w3.org/2000/svg" p-id="4275" xmlns:xlink="http://www.w3.org/1999/xlink" width="200" height="200"><defs><style type="text/css"></style></defs><path d="M416 384c-17.67 0-32 14.33-32 32v288c0 17.67 14.33 32 32 32s32-14.33 32-32V416c0-17.67-14.33-32-32-32zM576 416v288c0 17.67 14.33 32 32 32s32-14.33 32-32V416c0-17.67-14.33-32-32-32s-32 14.33-32 32z" p-id="4276"></path><path d="M864 224H671.78c0.03-0.75 0.22-1.45 0.22-2.2v-59.6c0-36.5-29.7-66.2-66.2-66.2H418.2c-36.5 0-66.2 29.7-66.2 66.2v59.59c0 0.75 0.2 1.46 0.22 2.2H160c-17.67 0-32 14.33-32 32s14.33 32 32 32h32v576c0 17.67 14.33 32 32 32h576c17.67 0 32-14.33 32-32V288h32c17.67 0 32-14.33 32-32s-14.33-32-32-32z m-448-2.2l2.2-61.8 189.8 2.2v59.59c0 1.22-0.98 2.2-2.2 2.2L416 221.8zM768 832H256V288H768v544z" p-id="4277"></path></svg>